<svg width="70" height="31" viewBox="0 0 70 31" fill="none" xmlns="http://www.w3.org/2000/svg">
<g clip-path="url(#clip0)">
<rect width="70" height="31"/>
<path d="M28.6506 7.18182H26.554V4.82955H25.0455V7.18182H23.5625V8.46023H25.0455V14.5966C25.0455 16.3097 26.4261 17.1278 27.7045 17.1278C28.267 17.1278 28.625 17.0256 28.8295 16.9489L28.5227 15.5938C28.3949 15.6193 28.1903 15.6705 27.858 15.6705C27.1932 15.6705 26.554 15.4659 26.554 14.1875V8.46023H28.6506V7.18182ZM34.8029 17.2045C37.462 17.2045 39.2518 15.1847 39.2518 12.142C39.2518 9.07386 37.462 7.05398 34.8029 7.05398C32.1438 7.05398 30.354 9.07386 30.354 12.142C30.354 15.1847 32.1438 17.2045 34.8029 17.2045ZM34.8029 15.8494C32.783 15.8494 31.8626 14.1108 31.8626 12.142C31.8626 10.1733 32.783 8.40909 34.8029 8.40909C36.8228 8.40909 37.7433 10.1733 37.7433 12.142C37.7433 14.1108 36.8228 15.8494 34.8029 15.8494ZM45.2619 17.2045C47.1539 17.2045 47.7931 16.0284 48.1255 15.4915H48.3045V17H49.7619V3.90909H48.2534V8.74148H48.1255C47.7931 8.23011 47.2051 7.05398 45.2875 7.05398C42.8074 7.05398 41.0943 9.02273 41.0943 12.1165C41.0943 15.2358 42.8074 17.2045 45.2619 17.2045ZM45.4664 15.8494C43.5744 15.8494 42.6028 14.1875 42.6028 12.0909C42.6028 10.0199 43.5488 8.40909 45.4664 8.40909C47.3074 8.40909 48.2789 9.89205 48.2789 12.0909C48.2789 14.3153 47.2818 15.8494 45.4664 15.8494ZM56.7228 17.2045C59.3819 17.2045 61.1717 15.1847 61.1717 12.142C61.1717 9.07386 59.3819 7.05398 56.7228 7.05398C54.0637 7.05398 52.274 9.07386 52.274 12.142C52.274 15.1847 54.0637 17.2045 56.7228 17.2045ZM56.7228 15.8494C54.7029 15.8494 53.7825 14.1108 53.7825 12.142C53.7825 10.1733 54.7029 8.40909 56.7228 8.40909C58.7427 8.40909 59.6632 10.1733 59.6632 12.142C59.6632 14.1108 58.7427 15.8494 56.7228 15.8494ZM64.5739 17.1023C65.2067 17.1023 65.7244 16.5845 65.7244 15.9517C65.7244 15.3189 65.2067 14.8011 64.5739 14.8011C63.9411 14.8011 63.4233 15.3189 63.4233 15.9517C63.4233 16.5845 63.9411 17.1023 64.5739 17.1023Z" fill="#090909"/>
<path d="M16.5 4.75H14.75V5.75H16.25V17.5H5.75V5.75H7.25V4.75H5.5C5.30116 4.75023 5.11053 4.82932 4.96993 4.96993C4.82932 5.11053 4.75023 5.30116 4.75 5.5V17.75C4.75023 17.9488 4.82932 18.1395 4.96993 18.2801C5.11053 18.4207 5.30116 18.4998 5.5 18.5H16.5C16.6988 18.4998 16.8895 18.4207 17.0301 18.2801C17.1707 18.1395 17.2498 17.9488 17.25 17.75V5.5C17.2498 5.30116 17.1707 5.11053 17.0301 4.96993C16.8895 4.82932 16.6988 4.75023 16.5 4.75Z" fill="black"/>
<path d="M9 7.375H13C13.1988 7.37477 13.3895 7.29568 13.5301 7.15507C13.6707 7.01447 13.7498 6.82384 13.75 6.625V3.5H8.25V6.625C8.25023 6.82384 8.32932 7.01447 8.46993 7.15507C8.61053 7.29568 8.80116 7.37477 9 7.375ZM9.25 4.5H12.75V6.375H9.25V4.5Z" fill="black"/>
<path d="M5.95312 26.9497C6.89418 26.9497 7.42503 26.4078 7.42503 25.514C7.42503 24.6257 6.89418 24.0894 5.99535 24.0894H5V26.9497H5.95312ZM5.37401 26.6425V24.3966H5.97122C6.69511 24.3966 7.06309 24.8212 7.06309 25.514C7.06309 26.2123 6.69511 26.6425 5.92899 26.6425H5.37401Z" fill="#4B5A70"/>
<path d="M8.97537 26.9944C9.4459 26.9944 9.78974 26.7765 9.89833 26.4525L9.55448 26.3631C9.46399 26.5866 9.25437 26.6983 8.97537 26.6983C8.55762 26.6983 8.26957 26.4483 8.25298 25.9888H9.93452V25.8492C9.93452 25.0503 9.42177 24.7765 8.93917 24.7765C8.3118 24.7765 7.89556 25.2346 7.89556 25.8939C7.89556 26.5531 8.30577 26.9944 8.97537 26.9944ZM8.25298 25.7039C8.27711 25.3701 8.53198 25.0726 8.93917 25.0726C9.32525 25.0726 9.57258 25.3408 9.57258 25.7039H8.25298Z" fill="#4B5A70"/>
<path d="M10.4759 26.9497H10.8318V24.8045H10.4759V26.9497ZM10.6569 24.4469C10.7957 24.4469 10.9103 24.3464 10.9103 24.2235C10.9103 24.1006 10.7957 24 10.6569 24C10.5182 24 10.4035 24.1006 10.4035 24.2235C10.4035 24.3464 10.5182 24.4469 10.6569 24.4469Z" fill="#4B5A70"/>
<path d="M11.8396 25.6592C11.8396 25.2849 12.09 25.0726 12.4308 25.0726C12.7611 25.0726 12.9617 25.2723 12.9617 25.6089V26.9497H13.3176V25.5866C13.3176 25.0391 13.0024 24.7765 12.5334 24.7765C12.1835 24.7765 11.9663 24.9218 11.8577 25.1397H11.8276V24.8045H11.4837V26.9497H11.8396V25.6592Z" fill="#4B5A70"/>
<path d="M14.9392 26.9944C15.4097 26.9944 15.7535 26.7765 15.8621 26.4525L15.5183 26.3631C15.4278 26.5866 15.2182 26.6983 14.9392 26.6983C14.5214 26.6983 14.2334 26.4483 14.2168 25.9888H15.8983V25.8492C15.8983 25.0503 15.3856 24.7765 14.903 24.7765C14.2756 24.7765 13.8594 25.2346 13.8594 25.8939C13.8594 26.5531 14.2696 26.9944 14.9392 26.9944ZM14.2168 25.7039C14.2409 25.3701 14.4958 25.0726 14.903 25.0726C15.2891 25.0726 15.5364 25.3408 15.5364 25.7039H14.2168Z" fill="#4B5A70"/>
<path d="M17.5135 24.3966H18.4847V26.9497H18.8587V24.3966H19.83V24.0894H17.5135V24.3966Z" fill="#4B5A70"/>
<path d="M20.9641 26.9944C21.5914 26.9944 22.0137 26.5531 22.0137 25.8883C22.0137 25.2179 21.5914 24.7765 20.9641 24.7765C20.3367 24.7765 19.9144 25.2179 19.9144 25.8883C19.9144 26.5531 20.3367 26.9944 20.9641 26.9944ZM20.9641 26.6983C20.4875 26.6983 20.2703 26.3184 20.2703 25.8883C20.2703 25.4581 20.4875 25.0726 20.9641 25.0726C21.4406 25.0726 21.6578 25.4581 21.6578 25.8883C21.6578 26.3184 21.4406 26.6983 20.9641 26.6983Z" fill="#4B5A70"/>
<path d="M23.5584 26.9497C24.4994 26.9497 25.0303 26.4078 25.0303 25.514C25.0303 24.6257 24.4994 24.0894 23.6006 24.0894H22.6053V26.9497H23.5584ZM22.9793 26.6425V24.3966H23.5765C24.3004 24.3966 24.6683 24.8212 24.6683 25.514C24.6683 26.2123 24.3004 26.6425 23.5342 26.6425H22.9793Z" fill="#4B5A70"/>
<path d="M26.5505 26.9944C27.1778 26.9944 27.6001 26.5531 27.6001 25.8883C27.6001 25.2179 27.1778 24.7765 26.5505 24.7765C25.9231 24.7765 25.5008 25.2179 25.5008 25.8883C25.5008 26.5531 25.9231 26.9944 26.5505 26.9944ZM26.5505 26.6983C26.0739 26.6983 25.8567 26.3184 25.8567 25.8883C25.8567 25.4581 26.0739 25.0726 26.5505 25.0726C27.027 25.0726 27.2442 25.4581 27.2442 25.8883C27.2442 26.3184 27.027 26.6983 26.5505 26.6983Z" fill="#4B5A70"/>
<path d="M28.4571 24.0894H28.1193V24.3464C28.1193 24.5531 28.0107 24.7318 27.884 24.8994L28.077 25.0447C28.3183 24.8659 28.4571 24.5698 28.4571 24.3408V24.0894Z" fill="#4B5A70"/>
<path d="M30.2404 25.2849C30.1288 24.9804 29.8785 24.7765 29.42 24.7765C28.9314 24.7765 28.5694 25.0335 28.5694 25.3966C28.5694 25.6927 28.7595 25.8911 29.1847 25.9832L29.5708 26.067C29.8046 26.1173 29.9147 26.2207 29.9147 26.3687C29.9147 26.5531 29.7035 26.7039 29.3717 26.7039C29.0807 26.7039 28.8982 26.588 28.8349 26.3575L28.497 26.4358C28.58 26.8003 28.9042 26.9944 29.3778 26.9944C29.9162 26.9944 30.2826 26.7221 30.2826 26.352C30.2826 26.0531 30.0806 25.8645 29.6673 25.7709L29.3235 25.6927C29.049 25.6299 28.9253 25.5447 28.9253 25.3799C28.9253 25.1955 29.1365 25.0615 29.42 25.0615C29.7307 25.0615 29.8589 25.2207 29.9207 25.3687L30.2404 25.2849Z" fill="#4B5A70"/>
<path d="M32.6945 27C33.0987 27 33.3098 26.7989 33.3822 26.6592H33.4003V26.9497H33.7562V25.5363C33.7562 24.8547 33.1952 24.7765 32.8996 24.7765C32.5497 24.7765 32.1516 24.8883 31.9706 25.2793L32.3084 25.3911C32.3868 25.2346 32.5723 25.067 32.9117 25.067C33.2389 25.067 33.4003 25.2277 33.4003 25.5028V25.514C33.4003 25.6732 33.2253 25.6592 32.8031 25.7095C32.3733 25.7612 31.9042 25.8492 31.9042 26.3408C31.9042 26.7598 32.2541 27 32.6945 27ZM32.7488 26.7039C32.4653 26.7039 32.2601 26.5866 32.2601 26.3575C32.2601 26.1061 32.5075 26.0279 32.785 25.9944C32.9358 25.9777 33.34 25.9385 33.4003 25.8715V26.1732C33.4003 26.4413 33.171 26.7039 32.7488 26.7039Z" fill="#4B5A70"/>
<path d="M34.7617 24.0894H34.4058V26.9497H34.7617V24.0894Z" fill="#4B5A70"/>
<path d="M37.0544 25.2849C36.9428 24.9804 36.6925 24.7765 36.234 24.7765C35.7454 24.7765 35.3834 25.0335 35.3834 25.3966C35.3834 25.6927 35.5735 25.8911 35.9987 25.9832L36.3848 26.067C36.6186 26.1173 36.7287 26.2207 36.7287 26.3687C36.7287 26.5531 36.5175 26.7039 36.1857 26.7039C35.8947 26.7039 35.7122 26.588 35.6489 26.3575L35.311 26.4358C35.394 26.8003 35.7182 26.9944 36.1918 26.9944C36.7302 26.9944 37.0966 26.7221 37.0966 26.352C37.0966 26.0531 36.8946 25.8645 36.4813 25.7709L36.1375 25.6927C35.863 25.6299 35.7393 25.5447 35.7393 25.3799C35.7393 25.1955 35.9505 25.0615 36.234 25.0615C36.5447 25.0615 36.6729 25.2207 36.7347 25.3687L37.0544 25.2849Z" fill="#4B5A70"/>
<path d="M38.8751 26.9497H39.2491V26.0223L39.6352 25.6201L40.7089 26.9497H41.1614L39.8644 25.3799L41.1614 24.0894H40.6727L39.2853 25.5084H39.2491V24.0894H38.8751V26.9497Z" fill="#4B5A70"/>
<path d="M42.2789 27C42.683 27 42.8942 26.7989 42.9666 26.6592H42.9847V26.9497H43.3406V25.5363C43.3406 24.8547 42.7796 24.7765 42.484 24.7765C42.1341 24.7765 41.736 24.8883 41.555 25.2793L41.8928 25.3911C41.9712 25.2346 42.1567 25.067 42.496 25.067C42.8233 25.067 42.9847 25.2277 42.9847 25.5028V25.514C42.9847 25.6732 42.8097 25.6592 42.3875 25.7095C41.9576 25.7612 41.4886 25.8492 41.4886 26.3408C41.4886 26.7598 41.8385 27 42.2789 27ZM42.3332 26.7039C42.0496 26.7039 41.8445 26.5866 41.8445 26.3575C41.8445 26.1061 42.0919 26.0279 42.3694 25.9944C42.5202 25.9777 42.9243 25.9385 42.9847 25.8715V26.1732C42.9847 26.4413 42.7554 26.7039 42.3332 26.7039Z" fill="#4B5A70"/>
<path d="M44.3461 25.6592C44.3461 25.2849 44.5965 25.0726 44.9373 25.0726C45.2676 25.0726 45.4681 25.2723 45.4681 25.6089V26.9497H45.8241V25.5866C45.8241 25.0391 45.5089 24.7765 45.0398 24.7765C44.69 24.7765 44.4728 24.9218 44.3642 25.1397H44.334V24.8045H43.9902V26.9497H44.3461V25.6592Z" fill="#4B5A70"/>
<path d="M46.5227 26.9497H46.8665V26.6201H46.9088C46.9872 26.7374 47.138 26.9944 47.5844 26.9944C48.1635 26.9944 48.5677 26.5642 48.5677 25.8827C48.5677 25.2067 48.1635 24.7765 47.5784 24.7765C47.1259 24.7765 46.9872 25.0335 46.9088 25.1453H46.8786V24.0894H46.5227V26.9497ZM46.8726 25.8771C46.8726 25.3966 47.1018 25.0726 47.5361 25.0726C47.9886 25.0726 48.2118 25.4246 48.2118 25.8771C48.2118 26.3352 47.9825 26.6983 47.5361 26.6983C47.1078 26.6983 46.8726 26.3631 46.8726 25.8771Z" fill="#4B5A70"/>
<path d="M49.7938 27C50.1979 27 50.4091 26.7989 50.4815 26.6592H50.4996V26.9497H50.8555V25.5363C50.8555 24.8547 50.2945 24.7765 49.9989 24.7765C49.649 24.7765 49.2508 24.8883 49.0699 25.2793L49.4077 25.3911C49.4861 25.2346 49.6716 25.067 50.0109 25.067C50.3382 25.067 50.4996 25.2277 50.4996 25.5028V25.514C50.4996 25.6732 50.3246 25.6592 49.9024 25.7095C49.4725 25.7612 49.0035 25.8492 49.0035 26.3408C49.0035 26.7598 49.3534 27 49.7938 27ZM49.8481 26.7039C49.5645 26.7039 49.3594 26.5866 49.3594 26.3575C49.3594 26.1061 49.6068 26.0279 49.8843 25.9944C50.0351 25.9777 50.4392 25.9385 50.4996 25.8715V26.1732C50.4996 26.4413 50.2703 26.7039 49.8481 26.7039Z" fill="#4B5A70"/>
<path d="M51.861 25.6592C51.861 25.2849 52.1114 25.0726 52.4522 25.0726C52.7825 25.0726 52.983 25.2723 52.983 25.6089V26.9497H53.3389V25.5866C53.3389 25.0391 53.0238 24.7765 52.5547 24.7765C52.2049 24.7765 51.9877 24.9218 51.8791 25.1397H51.8489V24.8045H51.5051V26.9497H51.861V25.6592Z" fill="#4B5A70"/>
<path d="M54.0376 26.9497H54.3814V26.6201H54.4237C54.5021 26.7374 54.6529 26.9944 55.0993 26.9944C55.6784 26.9944 56.0826 26.5642 56.0826 25.8827C56.0826 25.2067 55.6784 24.7765 55.0933 24.7765C54.6408 24.7765 54.5021 25.0335 54.4237 25.1453H54.3935V24.0894H54.0376V26.9497ZM54.3875 25.8771C54.3875 25.3966 54.6167 25.0726 55.051 25.0726C55.5035 25.0726 55.7267 25.4246 55.7267 25.8771C55.7267 26.3352 55.4974 26.6983 55.051 26.6983C54.6227 26.6983 54.3875 26.3631 54.3875 25.8771Z" fill="#4B5A70"/>
<path d="M57.5681 26.9944C58.1954 26.9944 58.6177 26.5531 58.6177 25.8883C58.6177 25.2179 58.1954 24.7765 57.5681 24.7765C56.9407 24.7765 56.5184 25.2179 56.5184 25.8883C56.5184 26.5531 56.9407 26.9944 57.5681 26.9944ZM57.5681 26.6983C57.0915 26.6983 56.8743 26.3184 56.8743 25.8883C56.8743 25.4581 57.0915 25.0726 57.5681 25.0726C58.0446 25.0726 58.2618 25.4581 58.2618 25.8883C58.2618 26.3184 58.0446 26.6983 57.5681 26.6983Z" fill="#4B5A70"/>
<path d="M59.8427 27C60.2468 27 60.458 26.7989 60.5304 26.6592H60.5484V26.9497H60.9044V25.5363C60.9044 24.8547 60.3433 24.7765 60.0478 24.7765C59.6979 24.7765 59.2997 24.8883 59.1188 25.2793L59.4566 25.3911C59.535 25.2346 59.7205 25.067 60.0598 25.067C60.3871 25.067 60.5484 25.2277 60.5484 25.5028V25.514C60.5484 25.6732 60.3735 25.6592 59.9512 25.7095C59.5214 25.7612 59.0524 25.8492 59.0524 26.3408C59.0524 26.7598 59.4023 27 59.8427 27ZM59.8969 26.7039C59.6134 26.7039 59.4083 26.5866 59.4083 26.3575C59.4083 26.1061 59.6557 26.0279 59.9331 25.9944C60.084 25.9777 60.4881 25.9385 60.5484 25.8715V26.1732C60.5484 26.4413 60.3192 26.7039 59.8969 26.7039Z" fill="#4B5A70"/>
<path d="M61.554 26.9497H61.9099V25.5922C61.9099 25.3017 62.1572 25.0894 62.495 25.0894C62.59 25.0894 62.6881 25.1061 62.7122 25.1117V24.7765C62.6715 24.7737 62.578 24.7709 62.5252 24.7709C62.2477 24.7709 62.0064 24.9162 61.922 25.1285H61.8978V24.8045H61.554V26.9497Z" fill="#4B5A70"/>
<path d="M63.9383 26.9944C64.3847 26.9944 64.5355 26.7374 64.6139 26.6201H64.6562V26.9497H65V24.0894H64.6441V25.1453H64.6139C64.5355 25.0335 64.3968 24.7765 63.9443 24.7765C63.3592 24.7765 62.955 25.2067 62.955 25.8827C62.955 26.5642 63.3592 26.9944 63.9383 26.9944ZM63.9866 26.6983C63.5402 26.6983 63.3109 26.3352 63.3109 25.8771C63.3109 25.4246 63.5341 25.0726 63.9866 25.0726C64.4209 25.0726 64.6501 25.3966 64.6501 25.8771C64.6501 26.3631 64.4149 26.6983 63.9866 26.6983Z" fill="#4B5A70"/>
</g>
<defs>
<clipPath id="clip0">
<rect width="70" height="31" fill="white"/>
</clipPath>
</defs>
</svg>
