<svg width="339" height="131" viewBox="0 0 339 131" fill="none" xmlns="http://www.w3.org/2000/svg">
<path d="M133.756 23.7231H122.319V10.9846H114.09V23.7231H106V30.6462H114.09V63.8769C114.09 73.1538 121.622 77.5846 128.596 77.5846C131.664 77.5846 133.617 77.0308 134.733 76.6154L133.059 69.2769C132.361 69.4154 131.246 69.6923 129.432 69.6923C125.806 69.6923 122.319 68.5846 122.319 61.6615V30.6462H133.756V23.7231Z" fill="#090909"/>
<path d="M167.318 78C181.824 78 191.587 67.0615 191.587 50.5846C191.587 33.9692 181.824 23.0308 167.318 23.0308C152.812 23.0308 143.049 33.9692 143.049 50.5846C143.049 67.0615 152.812 78 167.318 78ZM167.318 70.6615C156.299 70.6615 151.278 61.2461 151.278 50.5846C151.278 39.9231 156.299 30.3692 167.318 30.3692C178.337 30.3692 183.358 39.9231 183.358 50.5846C183.358 61.2461 178.337 70.6615 167.318 70.6615Z" fill="#090909"/>
<path d="M224.374 78C234.695 78 238.182 71.6308 239.995 68.7231H240.972V76.8923H248.922V6H240.693V32.1692H239.995C238.182 29.4 234.974 23.0308 224.513 23.0308C210.984 23.0308 201.639 33.6923 201.639 50.4461C201.639 67.3384 210.984 78 224.374 78ZM225.489 70.6615C215.168 70.6615 209.868 61.6615 209.868 50.3077C209.868 39.0923 215.029 30.3692 225.489 30.3692C235.532 30.3692 240.832 38.4 240.832 50.3077C240.832 62.3538 235.392 70.6615 225.489 70.6615Z" fill="#090909"/>
<path d="M286.895 78C301.401 78 311.164 67.0615 311.164 50.5846C311.164 33.9692 301.401 23.0308 286.895 23.0308C272.389 23.0308 262.626 33.9692 262.626 50.5846C262.626 67.0615 272.389 78 286.895 78ZM286.895 70.6615C275.876 70.6615 270.855 61.2461 270.855 50.5846C270.855 39.9231 275.876 30.3692 286.895 30.3692C297.914 30.3692 302.935 39.9231 302.935 50.5846C302.935 61.2461 297.914 70.6615 286.895 70.6615Z" fill="#090909"/>
<path d="M329.723 77.4461C333.176 77.4461 336 74.6423 336 71.2154C336 67.7885 333.176 64.9846 329.723 64.9846C326.271 64.9846 323.447 67.7885 323.447 71.2154C323.447 74.6423 326.271 77.4461 329.723 77.4461Z" fill="#090909"/>
<path d="M66.92 10H57.4V15.5273H65.56V80.4727H8.44V15.5273H16.6V10H7.08C5.9983 10.0013 4.96127 10.4384 4.1964 11.2156C3.43152 11.9927 3.00126 13.0464 3 14.1455V81.8545C3.00126 82.9536 3.43152 84.0073 4.1964 84.7844C4.96127 85.5616 5.9983 85.9987 7.08 86H66.92C68.0017 85.9987 69.0387 85.5616 69.8036 84.7844C70.5685 84.0073 70.9987 82.9536 71 81.8545V14.1455C70.9987 13.0464 70.5685 11.9927 69.8036 11.2156C69.0387 10.4384 68.0017 10.0013 66.92 10V10Z" fill="black"/>
<path d="M26.0909 25H47.9091C48.9937 24.9987 50.0335 24.5496 50.8004 23.7514C51.5673 22.9531 51.9987 21.8708 52 20.7419V3H22V20.7419C22.0013 21.8708 22.4327 22.9531 23.1996 23.7514C23.9665 24.5496 25.0063 24.9987 26.0909 25ZM27.4545 8.67742H46.5455V19.3226H27.4545V8.67742Z" fill="black"/>
<path d="M9.57996 122.732C14.1019 122.732 16.6528 119.842 16.6528 115.074C16.6528 110.337 14.1019 107.477 9.78287 107.477H5V122.732H9.57996ZM6.7972 121.093V109.115H9.66692C13.1454 109.115 14.9136 111.38 14.9136 115.074C14.9136 118.799 13.1454 121.093 9.46401 121.093H6.7972Z" fill="#4B5A70"/>
<path d="M24.1025 122.97C26.3635 122.97 28.0158 121.808 28.5375 120.08L26.8853 119.603C26.4504 120.795 25.4431 121.391 24.1025 121.391C22.0951 121.391 20.711 120.058 20.6313 117.607H28.7114V116.862C28.7114 112.601 26.2475 111.142 23.9286 111.142C20.9139 111.142 18.9138 113.585 18.9138 117.101C18.9138 120.616 20.8849 122.97 24.1025 122.97ZM20.6313 116.088C20.7472 114.307 21.9719 112.721 23.9286 112.721C25.7837 112.721 26.9722 114.151 26.9722 116.088H20.6313Z" fill="#4B5A70"/>
<path d="M31.313 122.732H33.0233V111.291H31.313V122.732ZM32.1826 109.384C32.8493 109.384 33.4001 108.847 33.4001 108.192C33.4001 107.536 32.8493 107 32.1826 107C31.5159 107 30.9652 107.536 30.9652 108.192C30.9652 108.847 31.5159 109.384 32.1826 109.384Z" fill="#4B5A70"/>
<path d="M37.8659 115.849C37.8659 113.853 39.0689 112.721 40.7067 112.721C42.2937 112.721 43.2575 113.786 43.2575 115.581V122.732H44.9678V115.462C44.9678 112.542 43.4532 111.142 41.1994 111.142C39.5182 111.142 38.4747 111.916 37.9529 113.078H37.808V111.291H36.1557V122.732H37.8659V115.849Z" fill="#4B5A70"/>
<path d="M52.7599 122.97C55.0209 122.97 56.6731 121.808 57.1949 120.08L55.5426 119.603C55.1078 120.795 54.1005 121.391 52.7599 121.391C50.7525 121.391 49.3684 120.058 49.2887 117.607H57.3688V116.862C57.3688 112.601 54.9049 111.142 52.5859 111.142C49.5713 111.142 47.5712 113.585 47.5712 117.101C47.5712 120.616 49.5423 122.97 52.7599 122.97ZM49.2887 116.088C49.4046 114.307 50.6293 112.721 52.5859 112.721C54.4411 112.721 55.6296 114.151 55.6296 116.088H49.2887Z" fill="#4B5A70"/>
<path d="M65.1301 109.115H69.797V122.732H71.5942V109.115H76.2611V107.477H65.1301V109.115Z" fill="#4B5A70"/>
<path d="M81.7107 122.97C84.7254 122.97 86.7545 120.616 86.7545 117.071C86.7545 113.495 84.7254 111.142 81.7107 111.142C78.6961 111.142 76.667 113.495 76.667 117.071C76.667 120.616 78.6961 122.97 81.7107 122.97ZM81.7107 121.391C79.4207 121.391 78.3772 119.365 78.3772 117.071C78.3772 114.777 79.4207 112.721 81.7107 112.721C84.0007 112.721 85.0442 114.777 85.0442 117.071C85.0442 119.365 84.0007 121.391 81.7107 121.391Z" fill="#4B5A70"/>
<path d="M94.177 122.732C98.699 122.732 101.25 119.842 101.25 115.074C101.25 110.337 98.699 107.477 94.3799 107.477H89.597V122.732H94.177ZM91.3942 121.093V109.115H94.2639C97.7424 109.115 99.5106 111.38 99.5106 115.074C99.5106 118.799 97.7424 121.093 94.061 121.093H91.3942Z" fill="#4B5A70"/>
<path d="M108.555 122.97C111.569 122.97 113.598 120.616 113.598 117.071C113.598 113.495 111.569 111.142 108.555 111.142C105.54 111.142 103.511 113.495 103.511 117.071C103.511 120.616 105.54 122.97 108.555 122.97ZM108.555 121.391C106.265 121.391 105.221 119.365 105.221 117.071C105.221 114.777 106.265 112.721 108.555 112.721C110.845 112.721 111.888 114.777 111.888 117.071C111.888 119.365 110.845 121.391 108.555 121.391Z" fill="#4B5A70"/>
<path d="M122.586 115.372H116.093V117.011H122.586V115.372Z" fill="#4B5A70"/>
<path d="M125.827 122.732H134.523V121.093H127.624V107.477H125.827V122.732Z" fill="#4B5A70"/>
<path d="M137.074 122.732H138.784V111.291H137.074V122.732ZM137.944 109.384C138.611 109.384 139.161 108.847 139.161 108.192C139.161 107.536 138.611 107 137.944 107C137.277 107 136.726 107.536 136.726 108.192C136.726 108.847 137.277 109.384 137.944 109.384Z" fill="#4B5A70"/>
<path d="M149.801 113.853C149.265 112.229 148.062 111.142 145.859 111.142C143.511 111.142 141.772 112.512 141.772 114.449C141.772 116.028 142.685 117.086 144.729 117.577L146.584 118.024C147.707 118.292 148.236 118.844 148.236 119.633C148.236 120.616 147.222 121.421 145.627 121.421C144.229 121.421 143.352 120.803 143.047 119.574L141.424 119.991C141.823 121.935 143.381 122.97 145.656 122.97C148.243 122.97 150.004 121.518 150.004 119.544C150.004 117.95 149.033 116.944 147.048 116.445L145.395 116.028C144.076 115.693 143.482 115.238 143.482 114.359C143.482 113.376 144.497 112.661 145.859 112.661C147.352 112.661 147.968 113.51 148.265 114.3L149.801 113.853Z" fill="#4B5A70"/>
<path d="M157.42 111.291H155.043V108.549H153.332V111.291H151.651V112.78H153.332V119.931C153.332 121.927 154.898 122.881 156.347 122.881C156.985 122.881 157.391 122.762 157.622 122.672L157.275 121.093C157.13 121.123 156.898 121.182 156.521 121.182C155.767 121.182 155.043 120.944 155.043 119.454V112.78H157.42V111.291Z" fill="#4B5A70"/>
<path d="M164.54 122.97C166.801 122.97 168.453 121.808 168.975 120.08L167.322 119.603C166.887 120.795 165.88 121.391 164.54 121.391C162.532 121.391 161.148 120.058 161.068 117.607H169.148V116.862C169.148 112.601 166.685 111.142 164.366 111.142C161.351 111.142 159.351 113.585 159.351 117.101C159.351 120.616 161.322 122.97 164.54 122.97ZM161.068 116.088C161.184 114.307 162.409 112.721 164.366 112.721C166.221 112.721 167.409 114.151 167.409 116.088H161.068Z" fill="#4B5A70"/>
<path d="M180.765 123C182.707 123 183.722 121.927 184.07 121.182H184.157V122.732H185.867V115.194C185.867 111.559 183.171 111.142 181.751 111.142C180.069 111.142 178.156 111.737 177.287 113.823L178.91 114.419C179.287 113.585 180.178 112.691 181.809 112.691C183.381 112.691 184.157 113.547 184.157 115.015V115.074C184.157 115.924 183.316 115.849 181.287 116.117C179.221 116.393 176.968 116.862 176.968 119.484C176.968 121.719 178.649 123 180.765 123ZM181.026 121.421C179.664 121.421 178.678 120.795 178.678 119.574C178.678 118.233 179.866 117.816 181.2 117.637C181.925 117.547 183.867 117.339 184.157 116.981V118.59C184.157 120.02 183.055 121.421 181.026 121.421Z" fill="#4B5A70"/>
<path d="M190.699 107.477H188.988V122.732H190.699V107.477Z" fill="#4B5A70"/>
<path d="M201.715 113.853C201.179 112.229 199.976 111.142 197.773 111.142C195.425 111.142 193.686 112.512 193.686 114.449C193.686 116.028 194.599 117.086 196.643 117.577L198.498 118.024C199.621 118.292 200.15 118.844 200.15 119.633C200.15 120.616 199.136 121.421 197.541 121.421C196.143 121.421 195.266 120.803 194.961 119.574L193.338 119.991C193.737 121.935 195.295 122.97 197.57 122.97C200.157 122.97 201.918 121.518 201.918 119.544C201.918 117.95 200.947 116.944 198.962 116.445L197.309 116.028C195.991 115.693 195.396 115.238 195.396 114.359C195.396 113.376 196.411 112.661 197.773 112.661C199.266 112.661 199.882 113.51 200.179 114.3L201.715 113.853Z" fill="#4B5A70"/>
<path d="M210.464 122.732H212.261V117.786L214.117 115.641L219.276 122.732H221.45L215.218 114.359L221.45 107.477H219.102L212.435 115.045H212.261V107.477H210.464V122.732Z" fill="#4B5A70"/>
<path d="M226.82 123C228.762 123 229.777 121.927 230.125 121.182H230.212V122.732H231.922V115.194C231.922 111.559 229.226 111.142 227.806 111.142C226.124 111.142 224.211 111.737 223.342 113.823L224.965 114.419C225.342 113.585 226.233 112.691 227.864 112.691C229.436 112.691 230.212 113.547 230.212 115.015V115.074C230.212 115.924 229.371 115.849 227.342 116.117C225.277 116.393 223.023 116.862 223.023 119.484C223.023 121.719 224.704 123 226.82 123ZM227.081 121.421C225.719 121.421 224.733 120.795 224.733 119.574C224.733 118.233 225.922 117.816 227.255 117.637C227.98 117.547 229.922 117.339 230.212 116.981V118.59C230.212 120.02 229.11 121.421 227.081 121.421Z" fill="#4B5A70"/>
<path d="M236.754 115.849C236.754 113.853 237.957 112.721 239.594 112.721C241.181 112.721 242.145 113.786 242.145 115.581V122.732H243.855V115.462C243.855 112.542 242.341 111.142 240.087 111.142C238.406 111.142 237.362 111.916 236.841 113.078H236.696V111.291H235.043V122.732H236.754V115.849Z" fill="#4B5A70"/>
<path d="M247.213 122.732H248.865V120.974H249.068C249.445 121.6 250.169 122.97 252.314 122.97C255.097 122.97 257.039 120.676 257.039 117.041C257.039 113.436 255.097 111.142 252.285 111.142C250.111 111.142 249.445 112.512 249.068 113.108H248.923V107.477H247.213V122.732ZM248.894 117.011C248.894 114.449 249.995 112.721 252.082 112.721C254.256 112.721 255.329 114.598 255.329 117.011C255.329 119.454 254.227 121.391 252.082 121.391C250.024 121.391 248.894 119.603 248.894 117.011Z" fill="#4B5A70"/>
<path d="M262.931 123C264.873 123 265.887 121.927 266.235 121.182H266.322V122.732H268.033V115.194C268.033 111.559 265.337 111.142 263.916 111.142C262.235 111.142 260.322 111.737 259.452 113.823L261.076 114.419C261.452 113.585 262.344 112.691 263.974 112.691C265.547 112.691 266.322 113.547 266.322 115.015V115.074C266.322 115.924 265.482 115.849 263.453 116.117C261.387 116.393 259.133 116.862 259.133 119.484C259.133 121.719 260.815 123 262.931 123ZM263.192 121.421C261.829 121.421 260.844 120.795 260.844 119.574C260.844 118.233 262.032 117.816 263.366 117.637C264.09 117.547 266.032 117.339 266.322 116.981V118.59C266.322 120.02 265.221 121.421 263.192 121.421Z" fill="#4B5A70"/>
<path d="M272.864 115.849C272.864 113.853 274.067 112.721 275.705 112.721C277.292 112.721 278.256 113.786 278.256 115.581V122.732H279.966V115.462C279.966 112.542 278.452 111.142 276.198 111.142C274.517 111.142 273.473 111.916 272.951 113.078H272.806V111.291H271.154V122.732H272.864V115.849Z" fill="#4B5A70"/>
<path d="M283.323 122.732H284.975V120.974H285.178C285.555 121.6 286.28 122.97 288.425 122.97C291.208 122.97 293.15 120.676 293.15 117.041C293.15 113.436 291.208 111.142 288.396 111.142C286.222 111.142 285.555 112.512 285.178 113.108H285.033V107.477H283.323V122.732ZM285.004 117.011C285.004 114.449 286.106 112.721 288.193 112.721C290.367 112.721 291.44 114.598 291.44 117.011C291.44 119.454 290.338 121.391 288.193 121.391C286.135 121.391 285.004 119.603 285.004 117.011Z" fill="#4B5A70"/>
<path d="M300.288 122.97C303.303 122.97 305.332 120.616 305.332 117.071C305.332 113.495 303.303 111.142 300.288 111.142C297.273 111.142 295.244 113.495 295.244 117.071C295.244 120.616 297.273 122.97 300.288 122.97ZM300.288 121.391C297.998 121.391 296.954 119.365 296.954 117.071C296.954 114.777 297.998 112.721 300.288 112.721C302.578 112.721 303.621 114.777 303.621 117.071C303.621 119.365 302.578 121.391 300.288 121.391Z" fill="#4B5A70"/>
<path d="M311.218 123C313.16 123 314.175 121.927 314.522 121.182H314.609V122.732H316.32V115.194C316.32 111.559 313.624 111.142 312.203 111.142C310.522 111.142 308.609 111.737 307.739 113.823L309.363 114.419C309.74 113.585 310.631 112.691 312.261 112.691C313.834 112.691 314.609 113.547 314.609 115.015V115.074C314.609 115.924 313.769 115.849 311.74 116.117C309.674 116.393 307.421 116.862 307.421 119.484C307.421 121.719 309.102 123 311.218 123ZM311.479 121.421C310.116 121.421 309.131 120.795 309.131 119.574C309.131 118.233 310.319 117.816 311.653 117.637C312.377 117.547 314.319 117.339 314.609 116.981V118.59C314.609 120.02 313.508 121.421 311.479 121.421Z" fill="#4B5A70"/>
<path d="M319.441 122.732H321.151V115.492C321.151 113.942 322.34 112.81 323.963 112.81C324.42 112.81 324.891 112.899 325.007 112.929V111.142C324.811 111.127 324.362 111.112 324.108 111.112C322.775 111.112 321.615 111.886 321.209 113.019H321.093V111.291H319.441V122.732Z" fill="#4B5A70"/>
<path d="M330.898 122.97C333.043 122.97 333.768 121.6 334.145 120.974H334.348V122.732H336V107.477H334.29V113.108H334.145C333.768 112.512 333.101 111.142 330.927 111.142C328.116 111.142 326.173 113.436 326.173 117.041C326.173 120.676 328.116 122.97 330.898 122.97ZM331.13 121.391C328.985 121.391 327.884 119.454 327.884 117.011C327.884 114.598 328.956 112.721 331.13 112.721C333.217 112.721 334.319 114.449 334.319 117.011C334.319 119.603 333.188 121.391 331.13 121.391Z" fill="#4B5A70"/>
</svg>
