<svg width="64" height="64" viewBox="0 0 64 64" fill="none" xmlns="http://www.w3.org/2000/svg">
<path d="M56 9.5V60H8V9.5L12 7H24V4H40V7H46.5H53L56 9.5Z" fill="white"/>
<path d="M54 7H47V11H53V58H11V11H17V7H10C9.20463 7.00093 8.44211 7.31729 7.8797 7.8797C7.31729 8.44211 7.00093 9.20463 7 10V59C7.00093 59.7954 7.31729 60.5579 7.8797 61.1203C8.44211 61.6827 9.20463 61.9991 10 62H54C54.7954 61.9991 55.5579 61.6827 56.1203 61.1203C56.6827 60.5579 56.9991 59.7954 57 59V10C56.9991 9.20463 56.6827 8.44211 56.1203 7.8797C55.5579 7.31729 54.7954 7.00093 54 7V7Z" fill="black"/>
<path d="M24 17.5H40C40.7954 17.4991 41.5579 17.1827 42.1203 16.6203C42.6827 16.0579 42.9991 15.2954 43 14.5V2H21V14.5C21.0009 15.2954 21.3173 16.0579 21.8797 16.6203C22.4421 17.1827 23.2046 17.4991 24 17.5ZM25 6H39V13.5H25V6Z" fill="black"/>
</svg>
